<?xml version="1.0" encoding="UTF-8"?>
<svg id="Layer_3" data-name="Layer 3" xmlns="http://www.w3.org/2000/svg" viewBox="0 0 595.28 595.28">
  <defs>
    <style>
      .cls-1 {
        fill: #f0e7d9;
      }
    </style>
  </defs>
  <path class="cls-1" d="M513.73,350.51c.74-.89,1.47-1.79,2.15-2.72.02-.03.05-.06.07-.09.75-1.03,1.44-2.07,2.07-3.1,1.42-2.19,6.28-9.63,7.2-17.22.92-7.59-4.41-16.33-8.07-17.37-.04.3-5.85,13.11-6.99,15.49-.93,1.95-1.89,3.92-2.88,5.9-15.58,31.23-23.2,34.94-27.57,35.01-1.49.03-3.68-.42-5.52-2.69-1.65-2.02-6.65-8.19-2-47.27,2.5-20.96,7.35-47.88,13.66-75.79,6.24-27.62,14.61-58.98,21.33-84.17,4.6-17.26,8.32-31.6,9.82-39.21.3-1.51-.36-1.59-.74-1.51-6.45,1.4-41.68,10.46-42.95,11.56-.42.36-1.15,1.34-1.44,1.71-6.24,8.08-50.54,103.52-91.44,195.51-1.48,3.34-2.97,6.68-4.44,10.01-1.39,3.14-2.78,6.27-4.16,9.4.07-.69.14-1.37.22-2.08.27-2.43.61-5.16,1-8.15.44-3.32.95-6.95,1.53-10.86,6.56-44.68,21.22-124.51,28.2-161.9.74-3.97,2.57-13.7,2.57-13.7.11-.58.09-1.63-1.01-1.4-8.32,1.71-39.92,9.41-41.87,12.04-1.07,1.44-47.18,92.07-68.48,130.67-25,45.32-51.93,91.74-86.92,130.12-4.03,4.42-8.15,8.85-12.57,12.87-25.51,24.2-48.92,33.73-70.54,30.76-10.82-1.49-17.72-6.11-20.69-12.49-3.98-8.53-.39-18.77,3.69-25.57,1.22-2.04,1.75-3.09-.88-2.35-10.94,3.07-30.04,10.28-32.2,13.95-8.88,15.04-1.76,31.54,12.03,38.15,31.57,15.13,75.31-3.63,104.51-22.22,40.32-25.67,71.64-61.53,97.67-101.2,22.35-34.06,43.19-69.41,63.04-104.98,1.52-2.62,2.93-5.06,4.22-7.29,1.64-2.84,3.07-5.33,4.28-7.43-.47,2.77-.95,5.61-1.42,8.52-.44,2.71-.88,5.48-1.32,8.3-9.31,59.93-17.4,140.39-15.44,157.48.09.76.18,1.63,1.52,1.54,3.16-.23,8.88-1.58,17.03-3.75,6.37-1.69,15.33-4.36,16.41-6.28.84-1.48,2.26-4.82,2.94-6.33,8.5-18.77,42.96-97.65,68.46-156.13,1.9-4.35,3.75-8.61,5.54-12.74,1.99-4.6,3.9-9.03,5.72-13.28-.93,4.62-1.87,9.34-2.81,14.14-.89,4.53-1.79,9.12-2.68,13.77-3.09,15.97-6.2,32.49-9.28,48.78-7.67,40.65-13.44,89.97,2.61,94.06,9.65,2.45,47.69-5.61,66.84-28.46Z"/>
</svg>