<svg xmlns="http://www.w3.org/2000/svg" viewBox="0 0 900 1400">
  <defs>
    <filter id="grain" x="-20%" y="-20%" width="140%" height="140%">
      <feTurbulence type="fractalNoise" baseFrequency=".92" numOctaves="4" seed="7"/>
      <feColorMatrix type="saturate" values="0"/>
      <feComponentTransfer>
        <feFuncA type="table" tableValues="0 .24"/>
      </feComponentTransfer>
    </filter>
    <linearGradient id="suit" x1=".15" x2=".84" y1=".02" y2=".96">
      <stop stop-color="#9b9c95"/>
      <stop offset=".38" stop-color="#454747"/>
      <stop offset=".74" stop-color="#111417"/>
      <stop offset="1" stop-color="#050607"/>
    </linearGradient>
    <pattern id="weave" width="8" height="8" patternUnits="userSpaceOnUse" patternTransform="rotate(33)">
      <path d="M0 1h8M0 5h8" stroke="#fff8ec" stroke-opacity=".14" stroke-width="1"/>
    </pattern>
  </defs>
  <rect width="900" height="1400" fill="#efe9dc"/>
  <path d="M765-36c-96 157-109 305-38 446 48 96 95 175 141 237 33 45 43 103 31 174-14 85-48 153-103 202-55 50-76 119-63 207 12 76 41 133 86 170H442c24-92-5-164-89-217-106-68-160-158-162-271-1-78-31-145-90-200-73-68-109-142-108-221 2-107 68-212 199-316 132-105 323-176 573-211Z" fill="url(#suit)"/>
  <path d="M86 312c132-82 268-105 409-69 101 25 168 78 200 157 21 51 10 88-33 112-58 32-139 21-244-31-119-59-257-50-414 27V365c25-20 52-37 82-53Z" fill="#767873"/>
  <path d="M24 630c84-47 167-58 249-34 87 26 138 80 153 163 15 84-14 152-87 205-77 56-190 79-339 70V653c8-8 16-16 24-23Z" fill="#1e2225"/>
  <path d="M287 751c53 49 65 107 35 173-30 67-92 107-187 120-51 7-96 2-135-15V753c95-56 191-57 287-2Z" fill="#555855"/>
  <path d="M570 819c97 54 151 154 162 299 8 109-7 203-44 282H377c-2-68-32-125-89-171-59-48-80-104-62-169 35-124 150-204 344-241Z" fill="#071022"/>
  <path d="M721 1104c78 4 138 31 179 82v214H677c-33-89-18-188 44-296Z" fill="#eaf4f1"/>
  <path d="M0 1162c59 27 97 66 114 118 16 47 8 87-23 120H0Z" fill="#292b2b"/>
  <g fill="#111">
    <circle cx="83" cy="645" r="23"/>
    <circle cx="91" cy="705" r="20"/>
    <circle cx="101" cy="760" r="16"/>
  </g>
  <path d="M0 0h900v1400H0z" fill="url(#weave)" opacity=".95"/>
  <rect width="900" height="1400" filter="url(#grain)" opacity=".8"/>
</svg>
