<svg xmlns="http://www.w3.org/2000/svg" viewBox="0 0 900 1400">
  <defs>
    <filter id="grain" x="-20%" y="-20%" width="140%" height="140%">
      <feTurbulence type="fractalNoise" baseFrequency=".85" numOctaves="4" seed="12"/>
      <feColorMatrix type="saturate" values="0"/>
      <feComponentTransfer>
        <feFuncA type="table" tableValues="0 .22"/>
      </feComponentTransfer>
    </filter>
    <linearGradient id="cloth" x1="0" x2="1" y1="0" y2="1">
      <stop stop-color="#787872"/>
      <stop offset=".48" stop-color="#3d3e3d"/>
      <stop offset="1" stop-color="#141515"/>
    </linearGradient>
    <pattern id="weave" width="9" height="9" patternUnits="userSpaceOnUse" patternTransform="rotate(26)">
      <path d="M0 3h9M0 7h9" stroke="#f8f2e4" stroke-opacity=".16" stroke-width="1"/>
    </pattern>
  </defs>
  <rect width="900" height="1400" fill="#e8e2d6"/>
  <path d="M830-15c-38 190-50 357 5 516 44 128 16 277-73 359-73 67-89 176-50 340 23 96 51 164 53 215H505c16-118-22-194-114-231-113-46-173-139-162-277 10-124-44-225-151-303C9 553-10 452 21 328 63 163 173 61 350 21c122-27 275-47 480-36Z" fill="url(#cloth)"/>
  <path d="M108 314c183-52 315-19 397 98 55 79 127 121 218 125 64 2 104 38 120 108 20 88-3 155-70 202-58 41-137 57-236 48-84-8-131 24-142 94-18 112-89 177-213 196-67 10-122 2-166-24V860c55 12 100 4 135-24 38-31 49-69 31-114-18-44-59-66-123-66H0V363c31-20 67-37 108-49Z" fill="#2e3031"/>
  <path d="M60 625c88-6 159 17 213 69 50 48 62 106 36 172-31 80-102 120-213 120H0V643c18-10 38-16 60-18Z" fill="#5d5f5d"/>
  <path d="M203 670c60 40 90 91 88 152-2 63-38 113-107 151-52 29-113 40-184 34V702c65-56 133-67 203-32Z" fill="#353637"/>
  <path d="M605 760c48 86 69 190 64 312-5 117-37 226-96 328H322c21-94 8-174-38-239-58-81-61-164-9-250 62-103 172-154 330-151Z" fill="#181c2b"/>
  <path d="M690 1107c84 8 154 41 210 99v194H650c-33-86-19-184 40-293Z" fill="#d8e5e4"/>
  <path d="M79 1168c47 123 53 200 19 232H0v-286c30 6 57 24 79 54Z" fill="#2f3130"/>
  <g fill="#151515">
    <circle cx="94" cy="643" r="24"/>
    <circle cx="103" cy="704" r="20"/>
    <circle cx="112" cy="761" r="17"/>
  </g>
  <path d="M278 179c143-14 247 24 310 113 30 42 36 76 18 102-31 43-110 32-236-33-83-43-176-58-280-46 25-65 88-111 188-136Z" fill="#696a66"/>
  <path d="M0 0h900v1400H0z" fill="url(#weave)" opacity=".82"/>
  <rect width="900" height="1400" filter="url(#grain)" opacity=".68"/>
</svg>
