<svg xmlns="http://www.w3.org/2000/svg" viewBox="0 0 900 1400">
  <defs>
    <filter id="grain" x="-20%" y="-20%" width="140%" height="140%">
      <feTurbulence type="fractalNoise" baseFrequency=".72" numOctaves="4" seed="21"/>
      <feColorMatrix type="saturate" values="0"/>
      <feComponentTransfer>
        <feFuncA type="table" tableValues="0 .2"/>
      </feComponentTransfer>
    </filter>
    <linearGradient id="fabric" x1=".08" x2=".92" y1=".02" y2=".98">
      <stop stop-color="#f6efe1"/>
      <stop offset=".5" stop-color="#bfb6a5"/>
      <stop offset="1" stop-color="#24211f"/>
    </linearGradient>
    <pattern id="weave" width="11" height="11" patternUnits="userSpaceOnUse" patternTransform="rotate(-18)">
      <path d="M0 2h11M0 8h11" stroke="#121212" stroke-opacity=".12" stroke-width="1"/>
    </pattern>
  </defs>
  <rect width="900" height="1400" fill="#272421"/>
  <path d="M-30 228c158-144 332-196 523-156 159 34 272 120 339 260 76 157 72 312-13 465-56 100-76 193-61 280 16 92 54 184 115 275l-78 48H378c-13-109-68-183-165-220-104-40-176-106-215-198Z" fill="url(#fabric)"/>
  <path d="M80 223c122-77 251-93 386-48 104 35 174 94 211 177 33 74 13 122-61 143-68 19-150-1-247-62-111-69-223-78-337-26-24-75-8-136 48-184Z" fill="#ddd2bf"/>
  <path d="M218 496c77 11 142 50 193 117 52 69 53 137 3 204-52 70-133 106-244 109-59 2-115-9-170-32V529c64-31 137-42 218-33Z" fill="#8f8779"/>
  <path d="M585 612c108 40 186 119 234 237 41 100 44 213 10 338-27 99-61 170-102 213H483c7-91-35-171-127-239-78-58-107-138-88-240 23-124 129-227 317-309Z" fill="#403b36"/>
  <path d="M721 995c76 19 136 59 179 120v285H658c-33-136-12-271 63-405Z" fill="#c66d4a"/>
  <path d="M33 1064c96 47 144 119 143 215-1 53-15 94-42 121H0v-356c11 4 22 11 33 20Z" fill="#4b4640"/>
  <g fill="#332e29">
    <circle cx="104" cy="636" r="25"/>
    <circle cx="115" cy="700" r="21"/>
    <circle cx="126" cy="759" r="17"/>
  </g>
  <path d="M0 0h900v1400H0z" fill="url(#weave)" opacity=".9"/>
  <rect width="900" height="1400" filter="url(#grain)" opacity=".72"/>
</svg>
