<?xml version="1.0" encoding="UTF-8"?>
<svg id="Layer_3" data-name="Layer 3" xmlns="http://www.w3.org/2000/svg" viewBox="0 0 896 385.08">
  <defs>
    <style>
      .cls-1 {
        fill: #402923;
      }
    </style>
  </defs>
  <path class="cls-1" d="M765.69,52.65c-5.22,1.21-16.56,3.69-17.43,5.02-.61.93-1.44,4.7-2.78,9.02-2.16,6.97-3.39,13.02-10.01,30.11-9.03,23.32-15.58,36.57-19.49,43.57-1.36,2.45-6.78,11.61-9.98,11.29-1.35-.13-1.46-2.06-1.41-3.26.36-8.65,2.69-17.28,4.95-25.59,2.38-8.76,4.87-17.48,7.48-26.18,1.57-5.24,3.22-10.44,4.58-15.72.36-1.39.71-2.78,1.05-4.18.31-1.27,1-2.88,1-4.18.12-.5.23-1.01.33-1.51.08-.39-.25-.73-.64-.67-4.91.82-15.94,4.02-20.74,6.1-.45.2-.8.57-.95,1.04-2.86,8.64-8.53,27.65-10.3,32.47-2.25,6.15-4.63,12.47-6.96,18.33-4.82,12.11-10.16,21.5-13.79,27.24-1.15,1.81-2.3,3.7-3.64,5.41-2.14,2.75-5.16,4.52-6.73,3.89-1.59-.64-.96-5.38-.83-6.74.3-3.07.83-6.12,1.39-9.16.1-.56.21-1.12.32-1.68.06-.29.11-1.52.33-1.68,0,0-.02.01-.02.02.19-.87.39-1.78.6-2.73.16-.72.32-1.45.5-2.22.94-4.16,2.07-8.96,3.45-14.44,3.64-14.51,8.2-29.01,11.52-39.6,1.25-4,2.33-7.45,3.07-9.97.27-.9-.43-1.1-.88-1-5.72,1.3-16.65,4.17-18.54,5.47-.67.83-2.2,4.93-4.23,10.13-1.18,3.03-2.13,5.38-2.13,5.38-.28.71-.57,1.45-.87,2.23-1.65,4.23-3.61,9.23-5.92,14.46-1.49,3.36-3.13,6.82-4.94,10.23-1.81,3.43-3.79,6.81-5.96,10.01-1.02,1.51-2.09,2.96-3.2,4.37-.99,1.26-2,2.49-3.06,3.64.44-1.55.85-3.06,1.25-4.55.47-1.76.9-3.48,1.32-5.16,3.56-14.47,2.3-27.78.56-33-5.92-17.77-38-2.58-52.92,14.33-10.35,11.73-23.36,36.04-23.54,58.02-.57,1.52-.86,2.1-1.57,3.57-.56,1.16-1.15,2.3-1.77,3.41-4.45,8.01-9.53,14.53-13.52,18.64-1.91,1.97-6.36,5.53-8.06,5.36-2.43-.24-1.38-7.67-1.04-9.88.11-.71.23-1.46.35-2.22.12-.72.24-1.46.37-2.23,2.2-12.84,6.41-31.7,14.93-57.54,7.05-21.39,15.51-42.02,21.69-57.08,2.8-6.82,5.48-13.35,6.7-16.88.1-.3-.16-.59-.47-.53-5.43,1.17-17.15,4.78-19.84,6.22-.2.11-.36.25-.48.43-2.96,4.43-19.64,40-27.26,63.09-2.49,7.54-4.72,14.63-6.68,21.27-.48,1.61-.94,3.19-1.38,4.75-2.34,2.68-4.73,3.74-5.33,4.01-1.34.6-5.05,2.45-7.94,1.73-.81-.2-5.85-.54,3.22-24.72l.35-1.02c1.83-5.3,1.16-6.71.88-6.99-1.16-1.21-5.06-.58-7.06-.26-11.31,1.83-21.76,9.24-27.33,13.74-1.26,1.01-2.43,2.06-2.93,2.47-.2.16-.34.28-.4.33l-2.61,2.59c.13-.4.25-.81.38-1.2,1.1-3.53,2.28-6.8,3.2-10.38.11-.41-.12-.63-.71-.5-5.27,1.14-17.07,4.18-19.05,5.53-1.69,2.1-7.91,20.56-14.79,46.16-2.74,10.17-4.87,18.57-6.72,26.43-.17.72-.33,1.43-.5,2.12-.18.77-.35,1.51-.52,2.25-.75.27-1.52.65-2.3,1.12-.8.49-1.62,1.07-2.43,1.71-3.42,2.69-6.8,6.48-9.2,9.17-3.02,3.38-5.79,6.64-7.08,6.02-1.5-.72-1.64-3.37,1.55-16.97.04-.17.08-.35.12-.53.13-.55.26-1.1.4-1.69,1.23-5.14,2.78-11.6,4.78-19.54,3.61-14.36,8.03-28.58,11.26-38.96,1.26-4.04,2.45-7.96,3.21-10.48.27-.9-.47-.99-.91-.89-5.79,1.31-16.93,4.25-18.6,5.38-.05.06-.1.13-.16.22-.34.53-1.18,2.69-1.81,4.25-1.01-.39-3.78-2.52-9.26-1.95-11.03,1.16-22.78,6.43-31.5,13.12-7.66,5.88-27.69,25.79-32.08,61.47-.72,1.65-3.68,8.14-4.43,9.72-.62,1.29-1.25,2.6-1.91,3.91-10.32,20.7-15.37,23.15-18.27,23.2-.99.02-2.44-.28-3.66-1.78-1.09-1.34-4.41-5.42-1.32-31.33,1.66-13.89,4.87-31.73,9.05-50.23,4.14-18.3,9.68-39.09,14.14-55.79,3.05-11.44,5.52-20.94,6.51-25.99.2-1-.23-1.06-.49-1-4.27.93-27.62,6.93-28.47,7.66-.28.24-.76.89-.95,1.14-4.14,5.36-33.5,68.61-60.6,129.58-.98,2.21-1.97,4.43-2.95,6.64-.92,2.08-1.84,4.16-2.76,6.23.05-.46.09-.91.15-1.38.18-1.61.4-3.42.67-5.4.29-2.2.63-4.61,1.01-7.2,4.35-29.61,14.07-82.52,18.69-107.3.49-2.63,1.7-9.08,1.7-9.08.07-.39.06-1.08-.67-.93-5.51,1.13-26.46,6.24-27.75,7.98-.71.96-31.27,61.02-45.39,86.61-16.57,30.04-34.41,60.8-57.61,86.24-2.67,2.93-5.4,5.86-8.33,8.53-16.91,16.04-32.43,22.35-46.75,20.38-7.17-.99-11.74-4.05-13.71-8.28-2.64-5.65-.26-12.44,2.45-16.95.81-1.35,1.16-2.05-.59-1.56-7.25,2.03-19.91,6.81-21.34,9.24-5.88,9.97-1.17,20.9,7.97,25.28,20.92,10.03,49.91-2.41,69.27-14.73,26.73-17.02,47.48-40.78,64.73-67.07,14.81-22.57,28.63-46,41.78-69.58,1.01-1.74,1.94-3.35,2.8-4.83,1.09-1.88,2.04-3.53,2.84-4.93-.31,1.84-.63,3.72-.94,5.65-.29,1.8-.58,3.63-.87,5.5-6.17,39.72-11.53,93.05-10.23,104.38.06.51.12,1.08,1.01,1.02,2.1-.15,5.88-1.05,11.29-2.48,4.22-1.12,10.16-2.89,10.88-4.16.55-.98,1.5-3.19,1.95-4.19,5.64-12.44,28.47-64.72,45.37-103.48,1.26-2.89,2.48-5.71,3.67-8.45,1.32-3.05,2.58-5.99,3.79-8.8-.62,3.07-1.24,6.19-1.87,9.37-.59,3-1.18,6.05-1.78,9.12-2.05,10.58-4.11,21.54-6.15,32.33-5.08,26.94-8.91,59.63,1.73,62.34,6.39,1.62,31.61-3.72,44.3-18.86.49-.59.97-1.19,1.42-1.8.01-.02.03-.04.04-.06.5-.68.96-1.37,1.37-2.05.24.87,2.1,6.2,9.34,7.23,6.29.9,13.03-.96,18.76-3.49,7.77-3.43,13.07-7.08,18.27-12.92,1.44-1.61,3.94-5.28,3.94-5.28-.3,1.83-.47,3.79-.3,5.62.12,1.31.35,3.58,1.66,4.34.44.26,1.46.52,2.52.54,1.31.03,2.36-.15,3.64-.46,4.11-.98,6.98-2.66,10.78-4.51,3.54-1.72,6.79-3.97,10.17-5.97,2.29-1.36,4.68-2.62,7.19-3.54.71-.26,1.42-.5,2.15-.7.69-.2,1.4-.36,2.12-.5-.14.76-.38,1.84-.49,2.48-.13.8-.24,1.51-.32,2.13-.07.54.27,1.37,1.25,1.17,1.74-.34,4.09-.91,6.55-1.57,1.19-.32,2.39-.65,3.57-.99,3-.87,5.83-1.64,7.38-2.37.75-.35,1.1-.99,1.27-1.69,1.02-4.06,3.95-16.87,6.86-28.6,3.41-13.74,6.49-24.35,6.59-24.73.98-3.6,1.59-4.86,2.33-6.02.78-1.25,1.65-2.61,2.59-4.04,2.62-3.97,5.35-7.88,8.18-11.7,8.12-11,12.22-12.76,13.22-12.7,1.46.1,1.35,1.8,1.03,3.03-.61,2.32-1.33,4.4-2.02,6.55-1.4,4.37-2.12,8.48-2.46,13.08-.13,1.78-.05,3.73,1.12,5.07,1.1,1.26,2.91,1.64,4.58,1.61,2.86-.05,5.74-.78,8.39-1.87,5.93-2.44,10.95-5.29,16.46-8.57,1.18-.7,2.33-1.44,3.49-2.17-.17.65-.46,1.77-.5,1.79-.25.93-.5,1.86-.74,2.77-3.69,13.96-5.92,25.38-6.66,34.11-.16,1.86-.3,3.73-.34,5.6-.04,1.78-.06,3.67.24,5.42.27,1.58,1.01,3.19,2.4,4,1.12.66,2.49.7,3.79.67,2.18-.06,6.59-.75,11.63-2.3h0c.67-.18,1.44-.44,2.27-.74,3.05-1.06,6.25-2.43,9.26-4.15,7.43-3.83,15.98-9.29,21.26-14.82,2.54,3.7,8.77,8.68,23.16,4.9,16.17-4.25,28.53-13.99,36.71-26.81.53-.83,1.04-1.66,1.53-2.52.49-.86.98-1.72,1.44-2.61.92-.34,1.85-.7,2.78-1.11.92-.4,1.85-.83,2.77-1.3,2.39-1.2,4.76-2.64,7.03-4.35.78-.58,1.55-1.2,2.31-1.85.82-.71,1.62-1.45,2.41-2.23-.2,1.12-.39,2.21-.56,3.27-.17,1.04-.68,2.72-.83,3.69-.65,4.4-2.49,14.63.45,16.83.64.48,1.4.77,2.18.94,6.66,1.38,16.32-2.05,20.04-3.64,4.02-1.72,11.47-5.08,21.75-18.6-1.19,4.94-.11,6.22.9,7.12,4.41,3.93,27.14,2.62,42.71-16.31,5.7-6.94,14.39-18.86,21.95-37.47,6.79-16.73,14.69-43.11,16.9-52.83.1-.45.21-1.24-.72-1.03ZM403.23,174.42c-.04.14-.05.19-.22.78-2.23,7.38-3.73,12.96-5.42,19.22-.29,1.06-.57,2.11-.68,2.55-.71,2.66-1.36,5.13-1.95,7.44-1.02,3.98-4.68,13.62-5.95,16.08-1.05,2.02-2.16,4.09-3.32,6.15-6.09,10.79-14.23,16.14-18.94,16.86-7.26,1.11-9.43-4.99-9.72-9.71-.77-12.44,2.96-30.61,8.68-44.07,9.44-22.22,21.08-30.93,26.59-30.63,9.2.5,11.36,13.91,10.94,15.33ZM615.74,130.58c-1.45,8.75-3.52,16.34-6.74,24.6-3.16,8.09-7.93,18.26-13.91,24.94-2.49,2.79-6.79,6.19-10.22,6.45-12.15.91-7.05-26.48-.51-45.61,8.78-25.69,21.83-41.04,29.07-42.73,4.77-1.11,5.72,11.68,2.31,32.34Z"/>
  <path class="cls-1" d="M811.13,102.1c-3.25,2.97-7.43,9.67-11.46,16.15-6.65,10.67-12.41,16.72-16.14,16.98-.76.05-3.45,0-5.89-2.8-4.68-5.4-3.36-16.97.36-34.39l.3-1.4,1.42-.2c.16-.02,15.75-2.37,28.43-15.59,8.55-8.91,18.66-21.8,17.9-34.89-.07-1.17-.25-2.38-.86-3.38-1-1.63-3.37-2.7-5.3-3.03-15.84-2.71-34.49,9.83-44.89,24.53-8.03,11.35-13.76,24.56-16.97,38.08-1.72,7.23-3.32,15.39-3.06,22.84.16,4.59,1.45,9.27,4.14,11.76,5.33,4.94,13.41,3.96,20.19,2.88,7.76-1.23,15.46-3.79,21.81-8.53,7.29-5.45,13.17-13.03,18.44-20.2,2.46-3.35,5.1-6.66,7.61-10.02.98-1.31,4.06-6.99,5.68-7.35-6.19,1.38-17.21,4.48-21.68,8.57ZM787.78,69.54c5.65-11.79,11.08-21.13,15.78-22.37,1.18-.31,2.74.61,3.33,2.59,2.15,7.28-8.6,33.29-27.39,41.87,0,0,1.96-8.89,8.29-22.09Z"/>
</svg>