<?xml version="1.0" encoding="UTF-8"?>
<svg id="Layer_3" data-name="Layer 3" xmlns="http://www.w3.org/2000/svg" viewBox="0 0 896 315.25">
  <defs>
    <style>
      .cls-1 {
        fill: #402923;
      }
    </style>
  </defs>
  <path class="cls-1" d="M236.73,106.06c-.22,0-.79-.02-1.43.25-.78.33-1.27.93-1.53,1.31l-50.83,89-19.85-89.42c-.02-.07-.04-.14-.07-.2-.43-.92-2.24-.93-3.35-.94-.12,0-.22,0-.27,0h-18.13c-7.61,0-21.55-1.17-26.78-1.45,0,0-9.11-.48-22.81,1.45-22.17,3.12-61.16,24.24-59.12,50.99,1.34,17.65,20.39,35.53,39.22,35.53,14.77,0,29.37-6.86,32.01-18.12.88-7.21-3.69-11.96-8.44-11.96-2.29,0-4.92,1.06-7.04,2.99,1.23,1.58,1.76,3.69,1.76,5.63,0,7.39-5.8,15.65-17.59,15.65-12.67,0-22.34-11.79-22.34-26.56,0-27.44,27.09-48.72,53.12-48.72,16.83,0,24.48,4.46,27.14,10.09,1.51,3.19,1.17,6.32,1,7.67-1.57,12.31-9.05,54.09-19.9,110.34h11.52c6.19-34.73,12.39-69.46,18.58-104.19l1.76-8.09,1.41-7.39c7.69,39.26,16.63,78.07,26.8,116.43.09.36.58.42.76.1l66.71-116.53c-7.09,39.89-14.19,79.78-21.28,119.67h10.93s7.59,0,7.59,0c7.5-44.52,15-89.04,22.51-133.55-11.2,0-20.12.07-22.07.01Z"/>
  <path class="cls-1" d="M298.86,195.74h-16.53c-4.57,0-5.45-1.58-3.52-5.63l.34-.73,20.81-44.56c.39,4.42.78,8.84,1.17,13.26.95,10.74,1.89,21.48,2.84,32.21.18,3.87-1.23,5.45-5.1,5.45ZM325.89,222.82c-2.27-18.32-4.17-34.05-5.63-46.25-1.58-13.21-3.31-27.8-5.15-43.6-2.96-.01-5.92-.02-8.9-.02-2.22,0-4.43,0-6.64,0-.88,0-1.76,0-2.64,0-17.66,35.55-35.32,71.1-52.99,106.65h11.4c4.66-10.22,9.31-20.44,13.96-30.67.36-.65,1.21-2,2.86-3.02,1.49-.93,2.92-1.14,3.65-1.2h23.92c.52-.02,2.17-.01,3.59,1.13.97.78,1.41,1.75,1.59,2.14.33.74.45,1.41.49,1.86.87,9.92,1.73,19.84,2.6,29.76h19.97c-.7-5.6-1.39-11.19-2.09-16.78Z"/>
  <path class="cls-1" d="M425.8,161.78c-.64-5.72-2.47-11.52-6.45-16.4-9.15-11.25-25.25-11.97-34.77-12.43-.42-.02-.09,0-30.26,0h-1.64c-1.73,9.84-3.46,19.68-5.19,29.52-2.07,13.8-6.36,37.96-9.11,51.21-1.53,8.64-3.07,17.28-4.6,25.92h19.45c6.96-41.09,12.53-71.69,14.54-83.48.53-3.11,1.9-10.94,7.64-14.1,1.51-.83,3.3-1.29,5.45-1.29,17.87,0,22.64,10.79,24.06,20.52,2.83,18.04-11.32,35.2-29.19,36.79-.53,0-1.95.18-3.36.18-.68,0-1.14.18-1.42.51-.54.67-.15,1.87.18,2.67.96,2.34,8.06,17.56,17.8,38.19h26.02c-4.17-6.36-8.34-12.72-12.51-19.09l-9.73-16.45c20.7-5.66,35.21-24.23,33.08-42.28Z"/>
  <path class="cls-1" d="M566.86,130.25c-37.64,0-63.32,31.66-63.32,64.9,0,30.43,19.53,47.14,46.61,47.14,37.29,0,62.62-32.01,62.62-64.9,0-30.61-20.05-47.14-45.91-47.14ZM550.5,234.2c-18.64,0-26.21-15.83-26.21-34.83,0-24.45,14.07-61.38,41.69-61.38,18.12,0,25.85,15.48,25.85,34.65,0,24.8-13.89,61.56-41.33,61.56Z"/>
  <g>
    <path class="cls-1" d="M794.51,182.55s.07-.01.11-.01h-10.66c.06,0,.11.01.17.01h10.38Z"/>
    <path class="cls-1" d="M793.46,231.97h-5.45c-14.6,0-16.01-7.04-14.77-16.01.53-4.4,2.64-17.59,3.16-20.05.53-3.34,2.29-4.93,5.8-4.93h9.85c.08,0,.14.02.22.02h17.87c.44-2.8.97-5.67,1.55-8.47h-17.06s-.07.01-.11.01h-10.38c-.06,0-.11,0-.17-.01h-.33.33c-3.9-.06-5.1-1.98-4.4-5.62.7-4.57,2.81-14.95,4.04-20.58,1.93-8.27,4.75-15.3,12.49-15.3h4.4c9.92,0,17.46,4.93,23.05,11.25h11.02c-2.11-6.45-4.21-12.89-6.32-19.34h-60.33c-1.08,6.78-2.15,13.56-3.23,20.34-2,12.44-4.14,25-6.44,37.68-1.5,8.27-3.07,15.86-5.89,31.06-1.38,7.45-2.49,13.55-3.21,17.57h71.6c3.18-7.98,6.36-15.97,9.53-23.96.48-1.17-.38-2.45-1.64-2.45h-5.97s-.04.02-.06.03c-7.11,9.34-18.07,18.75-29.16,18.75Z"/>
  </g>
  <path class="cls-1" d="M491.63,212.15c-7.18,11.01-18.08,19.93-29,19.93h-2.32c-14.77,0-15.12-7.12-13.88-16.01l1.25-8.9c4.2-24.74,8.4-49.48,12.61-74.22h-18.59c-.29,1.65-9.07,51.57-9.36,53.23-.29,1.67-9.1,51.75-9.4,53.42,2.67,0,6.47,0,11.36,0,.03,0,.66,0,.71,0,1.88,0,6.98-.01,13.03-.03,11.09-.03,11.47.03,32.43.04,2.76,0,6.6,0,9.27,0,3.7-9.15,7.4-18.3,11.11-27.45h-9.22Z"/>
  <path class="cls-1" d="M750.36,132.93c-13.96,30.03-27.92,60.07-41.88,90.1h-2.43c-2.37-30.02-4.74-60.04-7.11-90.06h-10.87c-14.13,30.02-28.25,60.04-42.38,90.06h-2.43c-3.21-30.03-6.42-60.07-9.63-90.1l-18.26.05c3.59,35.55,7.18,71.1,10.76,106.65h22.53c11.33-24.76,22.66-49.53,33.99-74.29,2.09,24.76,4.19,49.53,6.28,74.29h24.07c16.15-35.55,32.3-71.1,48.44-106.65l-11.09-.05Z"/>
</svg>