<?xml version="1.0" encoding="UTF-8"?>
<svg id="Layer_3" data-name="Layer 3" xmlns="http://www.w3.org/2000/svg" viewBox="0 0 595.28 595.28">
  <defs>
    <style>
      .cls-1 {
        fill: #f0e7d9;
      }
    </style>
  </defs>
  <path class="cls-1" d="M463.93,176.25c-.4-.01-1.44-.05-2.62.45-1.43.61-2.31,1.69-2.79,2.39l-92.8,162.47-36.24-163.24c-.03-.13-.08-.25-.13-.36-.78-1.68-4.09-1.69-6.12-1.72-.22,0-.4,0-.49,0h-33.1c-13.9,0-39.34-2.14-48.88-2.65,0,0-16.62-.88-41.64,2.65-40.47,5.7-111.65,44.25-107.93,93.08,2.46,32.22,37.22,64.86,71.61,64.86,26.97,0,53.61-12.52,58.43-33.07,1.61-13.17-6.74-21.84-15.41-21.84-4.17,0-8.99,1.93-12.84,5.46,2.25,2.89,3.21,6.74,3.21,10.28,0,13.48-10.6,28.57-32.11,28.57-23.12,0-40.78-21.51-40.78-48.49,0-50.09,49.45-88.94,96.97-88.94,30.73,0,44.69,8.15,49.55,18.42,2.75,5.82,2.14,11.53,1.82,14.01-2.86,22.47-16.52,98.74-36.33,201.43h21.03c11.31-63.4,22.61-126.8,33.92-190.19l3.21-14.77,2.57-13.48c14.03,71.67,30.36,142.52,48.93,212.54.17.65,1.05.77,1.39.18l121.79-212.72c-12.95,72.82-25.9,145.63-38.84,218.45h19.96s13.85,0,13.85,0c13.69-81.27,27.39-162.54,41.08-243.8-20.44,0-36.72.12-40.28.03Z"/>
</svg>